<svg xmlns="http://www.w3.org/2000/svg" width="431" height="784.207" viewBox="0 0 431 784.207"><g transform="translate(-1276 -1624)"><g transform="translate(49 84.704)"><path d="M0,0H430.5a10,10,0,0,1,10,10V421a10,10,0,0,1-10,10H0a0,0,0,0,1,0,0V0A0,0,0,0,1,0,0Z" transform="translate(1658 1883) rotate(90)" fill="#e4ebf1"/><path d="M10,0H347.016a0,0,0,0,1,0,0V431a0,0,0,0,1,0,0H10A10,10,0,0,1,0,421V10A10,10,0,0,1,10,0Z" transform="translate(1658 1539.296) rotate(90)" fill="#6e808e"/><g transform="translate(1264 1935)"><g transform="translate(0 0)"><rect width="355.386" height="20.524" transform="translate(0)" fill="#fff"/><rect width="233.323" height="19.444" transform="translate(0 36.727)" fill="#fff"/></g><rect width="220.361" height="39.967" transform="translate(0 84.256)" fill="#fff"/><rect width="356.466" height="56.17" transform="translate(0 279.772)" fill="#b5c0c6"/></g></g><rect width="355.386" height="91.817" transform="translate(1313 2183.894)" fill="#b5c0c6"/></g></svg>