<svg xmlns="http://www.w3.org/2000/svg" xmlns:xlink="http://www.w3.org/1999/xlink" width="2967.084" height="386" viewBox="0 0 2967.084 386">
  <defs>
    <linearGradient id="linear-gradient" y1="0.499" x2="1" y2="0.499" gradientUnits="objectBoundingBox">
      <stop offset="0" stop-color="#90cea1"/>
      <stop offset="0.56" stop-color="#3cbec9"/>
      <stop offset="1" stop-color="#00b3e5"/>
    </linearGradient>
  </defs>
  <path id="Path_14" data-name="Path 14" d="M2081.907,383.826h693.426c105.9,0,191.75-85.85,191.75-191.75h0A191.751,191.751,0,0,0,2775.333,0H2081.907a191.75,191.75,0,0,0-191.75,192.076h0c0,105.9,85.85,191.75,191.751,191.75Zm-1972.3.543h84.644V75.094h109.6V0H0V74.877H109.6Zm304.934,0H499.18V89.527h1.085l97.123,294.625H662.5L762.878,89.527h1.085V384.152h84.644V0H721.1L632.114,250.675h-1.085L542.587,0H414.537ZM967.324,1.3H1094.29a364.188,364.188,0,0,1,87.682,10.852,200.975,200.975,0,0,1,72.381,33.423,163.752,163.752,0,0,1,49.158,59.9,200.756,200.756,0,0,1,18.122,89.527,183.5,183.5,0,0,1-17.58,82.256,176.882,176.882,0,0,1-47.531,59.685,208.789,208.789,0,0,1-68.909,36.57A266.2,266.2,0,0,1,1105.684,386H967.324Zm84.644,306.019h43.407a235.045,235.045,0,0,0,54.259-5.968,114.812,114.812,0,0,0,44.058-19.208,94.737,94.737,0,0,0,29.082-36.353,129.134,129.134,0,0,0,10.852-55.127,107.11,107.11,0,0,0-10.852-49.05,99.512,99.512,0,0,0-28.54-34.509,125.989,125.989,0,0,0-41.562-20.293,185.13,185.13,0,0,0-50.786-6.837h-49.918ZM1444.259,1.3H1587.5a356.7,356.7,0,0,1,50.244,3.581A137.384,137.384,0,0,1,1683,18.991a86.165,86.165,0,0,1,32.555,29.517,90.506,90.506,0,0,1,12.479,50.461,81.171,81.171,0,0,1-18.122,54.259,99.076,99.076,0,0,1-48.073,30.6v.651a111.556,111.556,0,0,1,34.508,10.852,92.347,92.347,0,0,1,26.587,20.076,84.537,84.537,0,0,1,17.037,28.432,99.4,99.4,0,0,1,5.969,34.726,92.457,92.457,0,0,1-13.022,50.786,101.142,101.142,0,0,1-33.641,32.555,145.2,145.2,0,0,1-46.337,17.905,244.164,244.164,0,0,1-51.328,5.426h-157.35ZM1528.9,154.854h61.312a83.016,83.016,0,0,0,19.316-2.17,51.873,51.873,0,0,0,17.037-7.054,37.221,37.221,0,0,0,12.263-13.022,39.391,39.391,0,0,0,4.558-19.533,35.813,35.813,0,0,0-4.775-19.75,37.111,37.111,0,0,0-13.348-12.263,65.865,65.865,0,0,0-19.207-6.185,107.431,107.431,0,0,0-20.076-1.953h-57.514Zm0,158.978h75.962a89.744,89.744,0,0,0,19.859-2.17,50.678,50.678,0,0,0,18.122-7.6,42.648,42.648,0,0,0,13.348-14.107,41.237,41.237,0,0,0,5.1-21.161,34.29,34.29,0,0,0-6.728-21.7,43.407,43.407,0,0,0-17.146-12.805,89.3,89.3,0,0,0-21.7-5.968,164.072,164.072,0,0,0-22.246-1.628h-64.025Z" fill="url(#linear-gradient)"/>
</svg>
