<svg xmlns="http://www.w3.org/2000/svg" width="383.201" height="383.201" viewBox="0 0 383.201 383.201">
  <path id="Path_13" data-name="Path 13" d="M37.6-3027.4a191.168,191.168,0,0,1-63.74-10.858c9.364-2.987,23.9-8.007,39.95-14.974a308.888,308.888,0,0,0,42.723-22.3c15.425-9.823,27.644-20.21,36.317-30.873,11.4-14.014,16.613-28.89,15.49-44.211a67.478,67.478,0,0,0-7.688-25.879c-4.749-9.225-11.75-18.679-20.81-28.1-12.123-12.609-24.214-22.17-34.881-30.605l-.018-.014-.008-.007-.019-.016c-4.543-3.592-8.834-6.984-12.824-10.367-12.2-10.344-21.193-20.713-26.725-30.82-6.772-12.368-7.942-23.41-3.576-33.757,5.4-12.8,19.335-24.764,42.6-36.589,22.4-11.382,53.5-22.674,95.1-34.521a192.619,192.619,0,0,1,36.755,30.047,192.344,192.344,0,0,1,28.311,38.173,190.58,190.58,0,0,1,18.206,44.636A192.2,192.2,0,0,1,229.2-3219a190.4,190.4,0,0,1-15.057,74.579,191.6,191.6,0,0,1-17.666,32.545,192.972,192.972,0,0,1-23.4,28.357,192.917,192.917,0,0,1-28.356,23.4,191.571,191.571,0,0,1-32.546,17.666A190.393,190.393,0,0,1,37.6-3027.4ZM-64.27-3056.7a192.679,192.679,0,0,1-36.762-30.048,192.364,192.364,0,0,1-28.318-38.176,190.61,190.61,0,0,1-18.21-44.641A192.177,192.177,0,0,1-154-3219a190.4,190.4,0,0,1,15.057-74.58,191.6,191.6,0,0,1,17.665-32.546,192.872,192.872,0,0,1,23.4-28.356,192.982,192.982,0,0,1,28.356-23.4,191.611,191.611,0,0,1,32.546-17.665A190.394,190.394,0,0,1,37.6-3410.6a191.423,191.423,0,0,1,60.306,9.683,378.708,378.708,0,0,0-40.839,15.3,302.137,302.137,0,0,0-36.693,19.065c-13.539,8.369-24.69,17.18-33.143,26.186a78.579,78.579,0,0,0-13.841,19.825,56.72,56.72,0,0,0-5.67,22.516c-.585,16.92,6.849,33.807,22.1,50.191,14.81,15.913,29.69,28.839,42.818,40.243,15.961,13.864,29.743,25.835,37.455,38.188,8.295,13.288,9.067,25.991,2.5,41.19-5.443,7.986-15.675,20.182-41.577,33.817-22.843,12.025-59.3,25.227-95.287,37.7h0Z" transform="translate(154 3410.602)" fill="#0080ff"/>
</svg>
