<svg xmlns="http://www.w3.org/2000/svg" width="386" height="386" viewBox="0 0 386 386">
  <g id="logo_TypeScript" transform="translate(-0.795 -0.795)">
    <rect id="Rectangle_125" data-name="Rectangle 125" width="386" height="386" rx="50" transform="translate(0.795 0.795)" fill="#3178c6"/>
    <rect id="Rectangle_126" data-name="Rectangle 126" width="386" height="386" rx="20" transform="translate(0.795 0.795)" fill="#3178c6"/>
    <path id="Path_10" data-name="Path 10" d="M269.662,367.161v38.164a80.876,80.876,0,0,0,22.013,7.155,145,145,0,0,0,26.785,2.385,125.167,125.167,0,0,0,26.07-2.624,63.9,63.9,0,0,0,21.655-8.647,44.053,44.053,0,0,0,14.735-15.743q5.428-9.72,5.429-24.031a49.069,49.069,0,0,0-3.1-18.188,42.507,42.507,0,0,0-8.948-13.894,65.522,65.522,0,0,0-14.019-10.913,150.179,150.179,0,0,0-18.434-9.123q-7.516-3.1-13.482-6.023a68.466,68.466,0,0,1-10.142-5.963,26,26,0,0,1-6.443-6.44,13.553,13.553,0,0,1-2.267-7.693,12.857,12.857,0,0,1,2.029-7.1,17.515,17.515,0,0,1,5.727-5.426,30.628,30.628,0,0,1,9.068-3.518,52.612,52.612,0,0,1,11.932-1.252,75.693,75.693,0,0,1,10.081.715,79.8,79.8,0,0,1,10.679,2.206,74.338,74.338,0,0,1,10.44,3.757,57.539,57.539,0,0,1,9.366,5.248v-35.66a93.18,93.18,0,0,0-19.03-4.949A155.057,155.057,0,0,0,336.119,238a110.091,110.091,0,0,0-25.771,2.922,65.559,65.559,0,0,0-21.417,9.123,45.589,45.589,0,0,0-14.615,15.8q-5.369,9.6-5.369,22.958,0,17.055,9.844,29.1T308.677,338.3q7.874,3.22,14.675,6.321a81.676,81.676,0,0,1,11.752,6.44,30.819,30.819,0,0,1,7.816,7.275,14.818,14.818,0,0,1,2.863,8.945,13.685,13.685,0,0,1-1.79,6.857,15.869,15.869,0,0,1-5.429,5.486,29.761,29.761,0,0,1-9.067,3.637,54.5,54.5,0,0,1-12.707,1.312,72.511,72.511,0,0,1-24.578-4.353,73.351,73.351,0,0,1-22.55-13.059ZM205.5,273.131h48.958V241.812H118v31.319h48.719V412.579H205.5Z" transform="translate(-29.309 -57.827)" fill="#fff" fill-rule="evenodd"/>
  </g>
</svg>
