<svg xmlns="http://www.w3.org/2000/svg" width="370.786" height="391" viewBox="0 0 370.786 391">
  <g id="logo_react" transform="translate(20.783 21.771)">
    <circle id="Ellipse_1" data-name="Ellipse 1" cx="35.56" cy="35.56" r="35.56" transform="translate(129.05 138.169)" fill="#61dafb"/>
    <g id="Group_117" data-name="Group 117" transform="translate(-20.783 -21.771)">
      <path id="Ellipse_2" data-name="Ellipse 2" d="M182.893-2.5A444.509,444.509,0,0,1,253.74,2.985c21.78,3.531,41.375,8.6,58.24,15.062,17.165,6.578,30.724,14.314,40.3,22.991a54.516,54.516,0,0,1,11.677,14.474,33.931,33.931,0,0,1,0,33.159,54.516,54.516,0,0,1-11.677,14.474c-9.577,8.678-23.136,16.413-40.3,22.991-16.865,6.464-36.46,11.531-58.24,15.062a444.511,444.511,0,0,1-70.847,5.485,444.512,444.512,0,0,1-70.847-5.485c-21.78-3.531-41.375-8.6-58.24-15.062-17.165-6.578-30.724-14.314-40.3-22.991A54.516,54.516,0,0,1,1.826,88.671a33.931,33.931,0,0,1,0-33.159A54.516,54.516,0,0,1,13.5,41.038c9.577-8.678,23.136-16.413,40.3-22.991,16.865-6.464,36.46-11.531,58.24-15.062A444.511,444.511,0,0,1,182.893-2.5Zm0,137.7c47.3,0,91.687-7.027,124.979-19.786,31.1-11.918,48.933-27.709,48.933-43.325S338.97,40.684,307.872,28.766C274.58,16.007,230.195,8.98,182.893,8.98S91.206,16.007,57.914,28.766C26.816,40.684,8.98,56.476,8.98,72.092S26.816,103.5,57.914,115.417C91.206,128.176,135.591,135.2,182.893,135.2Z" transform="translate(2.5 123.408)" fill="#61dafb"/>
      <path id="Path_5" data-name="Path 5" d="M175.44,0c2.464,0,4.968.019,7.441.057a453.293,453.293,0,0,1,70.294,6.389C274.807,10.2,294.3,15.408,311.1,21.929c17.091,6.633,30.627,14.33,40.234,22.878A55.438,55.438,0,0,1,363.1,59a34.271,34.271,0,0,1,4.55,16.22,32.563,32.563,0,0,1-3.186,14.406,46.324,46.324,0,0,1-9.1,12.7c-12.6,12.8-34.589,23.588-63.595,31.211s-63.447,11.657-99.56,11.657c-2.464,0-4.968-.019-7.441-.057a453.3,453.3,0,0,1-70.294-6.389c-21.632-3.752-41.121-8.962-57.924-15.483-17.091-6.633-30.628-14.33-40.234-22.878A55.438,55.438,0,0,1,4.554,86.192,34.271,34.271,0,0,1,0,69.972,32.563,32.563,0,0,1,3.19,55.566a46.323,46.323,0,0,1,9.1-12.7c12.6-12.8,34.589-23.588,63.595-31.211S139.326,0,175.44,0Zm16.779,133.713c35.143,0,68.561-3.9,96.642-11.28,26.624-7,47.34-17,58.332-28.162,6.059-6.154,9.082-12.5,8.983-18.872C355.941,60.27,338,44.682,306.946,32.632c-33.213-12.889-77.335-20.381-124.24-21.1-2.415-.037-4.86-.056-7.266-.056-35.143,0-68.561,3.9-96.642,11.28-26.624,7-47.34,17-58.332,28.162-6.059,6.154-9.082,12.5-8.983,18.872.235,15.129,18.178,30.717,49.23,42.767,33.213,12.889,77.335,20.381,124.24,21.1C187.368,133.694,189.813,133.713,192.219,133.713Z" transform="translate(156.349 0) rotate(60)" fill="#61dafb"/>
      <path id="Path_6" data-name="Path 6" d="M192.219,0c36.115,0,70.543,4.031,99.561,11.656s50.994,18.413,63.592,31.209a46.325,46.325,0,0,1,9.1,12.7,32.567,32.567,0,0,1,3.186,14.407,34.271,34.271,0,0,1-4.55,16.22,55.439,55.439,0,0,1-11.771,14.194c-9.606,8.548-23.143,16.245-40.234,22.878-16.8,6.521-36.292,11.73-57.924,15.483a453.292,453.292,0,0,1-70.294,6.389c-2.473.038-4.977.057-7.441.057-36.115,0-70.543-4.031-99.562-11.656s-50.994-18.413-63.592-31.209a46.325,46.325,0,0,1-9.1-12.7A32.567,32.567,0,0,1,0,75.221,34.271,34.271,0,0,1,4.554,59,55.438,55.438,0,0,1,16.326,44.807c9.606-8.548,23.143-16.245,40.234-22.878,16.8-6.521,36.292-11.73,57.924-15.483A453.293,453.293,0,0,1,184.778.057C187.251.019,189.755,0,192.219,0ZM175.44,133.713c2.406,0,4.851-.019,7.266-.055,46.9-.715,91.027-8.207,124.24-21.1,31.052-12.051,49-27.639,49.23-42.767.1-6.37-2.924-12.72-8.984-18.875-10.992-11.163-31.707-21.164-58.329-28.16-28.08-7.379-61.5-11.279-96.644-11.279-2.406,0-4.851.019-7.266.056-46.9.715-91.027,8.207-124.24,21.1-31.052,12.051-49,27.639-49.23,42.767-.1,6.37,2.924,12.72,8.984,18.874,10.992,11.163,31.707,21.164,58.329,28.16C106.876,129.812,140.295,133.713,175.44,133.713Z" transform="translate(340.178 72.597) rotate(120)" fill="#61dafb"/>
    </g>
  </g>
</svg>
