<svg xmlns="http://www.w3.org/2000/svg" width="410.315" height="389.519" viewBox="0 0 410.315 389.519">
  <g id="logo_redux" transform="translate(-11.15 -13.3)">
    <path id="Path_7" data-name="Path 7" d="M295.455,138.853a29.328,29.328,0,0,0-3.133-58.48h-1.044a29.213,29.213,0,0,0-28.2,30.284,29.986,29.986,0,0,0,8.354,19.319c-17.753,34.984-44.9,60.569-85.631,81.976-27.674,14.62-56.391,19.841-85.109,16.186-23.5-3.133-41.771-13.576-53.259-30.806C30.729,171.748,29.162,144.074,43.26,116.4c9.921-19.841,25.585-34.461,35.506-41.771C76.677,67.841,73.545,56.354,71.978,48-3.733,102.825,4.1,176.969,27.074,211.953c17.231,26.107,52.214,42.294,90.853,42.294a128.363,128.363,0,0,0,31.329-3.655C216.09,237.538,266.738,197.855,295.455,138.853Z" transform="translate(0 146.484)" fill="#764abc"/>
    <path id="Path_8" data-name="Path 8" d="M267.689,123.92c-39.683-46.471-98.163-72.056-165-72.056H94.338A28.691,28.691,0,0,0,68.753,36.2H67.708a29.249,29.249,0,0,0,1.044,58.48H69.8A29.413,29.413,0,0,0,95.382,76.927h9.4c39.683,0,77.277,11.487,111.217,33.939C242.1,128.1,260.9,150.549,271.344,177.7c8.876,21.93,8.354,43.338-1.044,61.613-14.62,27.674-39.161,42.816-71.534,42.816-20.886,0-40.727-6.266-51.17-10.965-5.744,5.221-16.186,13.576-23.5,18.8,22.452,10.443,45.426,16.186,67.356,16.186,50.126,0,87.2-27.674,101.3-55.347,15.142-30.284,14.1-82.5-25.063-126.881Z" transform="translate(119.663 96.671)" fill="#764abc"/>
    <path id="Path_9" data-name="Path 9" d="M55.841,294.213a29.33,29.33,0,0,0,29.24,28.2h1.044a29.249,29.249,0,0,0-1.044-58.48H84.037a8.886,8.886,0,0,0-3.655.522C58.974,228.945,50.1,190.307,53.23,148.535c2.089-31.329,12.531-58.48,30.806-80.932,15.142-19.319,44.382-28.718,64.224-29.24,55.347-1.044,78.844,67.879,80.41,95.552,6.788,1.566,18.275,5.221,26.107,7.832C248.512,57.16,196.3,13.3,146.172,13.3,99.179,13.3,55.841,47.239,38.61,97.365,14.592,164.2,30.256,228.423,59.5,279.071c-2.611,3.655-4.177,9.4-3.655,15.142Z" transform="translate(66.263 0)" fill="#764abc"/>
  </g>
</svg>
