<svg id="logo_react_router" xmlns="http://www.w3.org/2000/svg" width="709.715" height="386" viewBox="0 0 709.715 386">
  <path id="Path_1" data-name="Path 1" d="M340.682,252.879c-13.379,4.367-27.765,5.708-41.741,8.156-3.8.665-7.815.072-11.658.6-29.811,4.136-41.076,16.077-45.287,47.821-2.24,16.9-6.687,32.958-16.385,47.336-16.385,24.283-48.214,35.3-75.456,25.816C121,372.457,103.334,345.879,105.69,315.7c2.121-27.189,23.6-51.209,53.756-58.189,14.12-3.269,28.772-4.547,43.26-5.866,27.044-2.459,38.991-14.316,43.5-40.909,2.592-15.3.283-29.736-3.111-44.169-5.182-22.06-21.245-32.309-48.212-34.272-14.716-1.073-29.687-3.208-43.768-7.438-29.642-8.913-46.9-34.646-45.534-64.835,1.2-26.435,22.725-52.173,48.583-58.084C184.8-5.068,215.3,7.183,228.323,34.466,235.16,48.783,238.917,65,241.592,80.779c4.793,28.289,16.033,39.265,44.25,42.331,18.248,1.985,36.842,4.247,54.244,9.692,26.426,8.27,42.3,32.9,42.3,60.266C382.379,219.841,365.994,244.62,340.682,252.879Z" transform="translate(186.951 0)" fill="#f44250"/>
  <path id="Path_2" data-name="Path 2" d="M119.212,175.047a64.34,64.34,0,1,1,64.325-64.352A64.483,64.483,0,0,1,119.212,175.047Z" transform="translate(97.233 82.18)" fill="#424242"/>
  <path id="Path_3" data-name="Path 3" d="M64.125,221.463a64.339,64.339,0,1,1,64.552-64.125A64.482,64.482,0,0,1,64.125,221.463Z" transform="translate(0 164.451)" fill="#424242"/>
  <path id="Path_4" data-name="Path 4" d="M274.4,221.464c-35.486.2-64.621-28.5-64.824-63.856-.2-35.484,28.5-64.621,63.856-64.821,35.484-.205,64.619,28.494,64.824,63.853C338.463,192.124,309.76,221.261,274.4,221.464Z" transform="translate(371.454 164.451)" fill="#424242"/>
</svg>
